<svg width="28" height="27" viewBox="0 0 28 27" fill="none" xmlns="http://www.w3.org/2000/svg">
<path d="M12.25 15.1875H3.5C2.5375 15.1875 1.75 15.9469 1.75 16.875V21.9375C1.75 22.8656 2.5375 23.625 3.5 23.625H5.6L7.0875 26.1562L8.575 25.3125L6.5625 21.9375H3.5V16.875H12.25V21.9375H9.625V23.625H12.25C13.2125 23.625 14 22.8656 14 21.9375V16.875C14 15.9469 13.2125 15.1875 12.25 15.1875Z" fill="#FDFCF9" stroke="#FDFCF9"/>
<path d="M16.625 21.9375H18.375C21.7875 21.9375 24.5 19.3219 24.5 16.0312V14.3438H22.75V16.0312C22.75 18.3937 20.825 20.25 18.375 20.25H16.625V21.9375Z" fill="#FDFCF9" stroke="#FDFCF9"/>
<path d="M21 9.28125H15.75V10.9688H21V9.28125Z" fill="#FDFCF9" stroke="#FDFCF9"/>
<path d="M26.25 5.90625H15.75V7.59375H26.25V5.90625Z" fill="#FDFCF9" stroke="#FDFCF9"/>
<path d="M26.25 2.53125H15.75V4.21875H26.25V2.53125Z" fill="#FDFCF9" stroke="#FDFCF9"/>
<path d="M3.5 11.8125H5.25V10.125C5.25 7.7625 7.175 5.90625 9.625 5.90625H13.125V4.21875H9.625C6.2125 4.21875 3.5 6.83437 3.5 10.125V11.8125Z" fill="#FDFCF9" stroke="#FDFCF9"/>
</svg>
