<svg width="22" height="21" viewBox="0 0 22 21" fill="none" xmlns="http://www.w3.org/2000/svg">
<g clip-path="url(#clip0_583_2019)">
<path d="M19.25 1.3125C19.6147 1.3125 19.9644 1.45078 20.2223 1.69692C20.4801 1.94306 20.625 2.2769 20.625 2.625V13.125C20.625 13.4731 20.4801 13.8069 20.2223 14.0531C19.9644 14.2992 19.6147 14.4375 19.25 14.4375H15.8125C15.3856 14.4375 14.9645 14.5324 14.5827 14.7146C14.2008 14.8969 13.8687 15.1615 13.6125 15.4875L11 18.8121L8.3875 15.4875C8.13135 15.1615 7.79919 14.8969 7.41734 14.7146C7.03549 14.5324 6.61442 14.4375 6.1875 14.4375H2.75C2.38533 14.4375 2.03559 14.2992 1.77773 14.0531C1.51987 13.8069 1.375 13.4731 1.375 13.125V2.625C1.375 2.2769 1.51987 1.94306 1.77773 1.69692C2.03559 1.45078 2.38533 1.3125 2.75 1.3125H19.25ZM2.75 0C2.02065 0 1.32118 0.276562 0.805456 0.768845C0.289731 1.26113 0 1.92881 0 2.625L0 13.125C0 13.8212 0.289731 14.4889 0.805456 14.9812C1.32118 15.4734 2.02065 15.75 2.75 15.75H6.1875C6.40096 15.75 6.61149 15.7974 6.80242 15.8886C6.99334 15.9797 7.15942 16.112 7.2875 16.275L9.9 19.5996C10.0281 19.7626 10.1942 19.8949 10.3851 19.986C10.576 20.0771 10.7865 20.1246 11 20.1246C11.2135 20.1246 11.424 20.0771 11.6149 19.986C11.8058 19.8949 11.9719 19.7626 12.1 19.5996L14.7125 16.275C14.8406 16.112 15.0067 15.9797 15.1976 15.8886C15.3885 15.7974 15.599 15.75 15.8125 15.75H19.25C19.9793 15.75 20.6788 15.4734 21.1945 14.9812C21.7103 14.4889 22 13.8212 22 13.125V2.625C22 1.92881 21.7103 1.26113 21.1945 0.768845C20.6788 0.276562 19.9793 0 19.25 0L2.75 0Z" fill="#FDFCF9"/>
<path d="M5.8 8C5.8 8.26522 5.70518 8.51957 5.5364 8.70711C5.36761 8.89464 5.13869 9 4.9 9C4.66131 9 4.43239 8.89464 4.2636 8.70711C4.09482 8.51957 4 8.26522 4 8C4 7.73478 4.09482 7.48043 4.2636 7.29289C4.43239 7.10536 4.66131 7 4.9 7C5.13869 7 5.36761 7.10536 5.5364 7.29289C5.70518 7.48043 5.8 7.73478 5.8 8ZM9.4 8C9.4 8.26522 9.30518 8.51957 9.1364 8.70711C8.96761 8.89464 8.73869 9 8.5 9C8.26131 9 8.03239 8.89464 7.8636 8.70711C7.69482 8.51957 7.6 8.26522 7.6 8C7.6 7.73478 7.69482 7.48043 7.8636 7.29289C8.03239 7.10536 8.26131 7 8.5 7C8.73869 7 8.96761 7.10536 9.1364 7.29289C9.30518 7.48043 9.4 7.73478 9.4 8ZM13 8C13 8.26522 12.9052 8.51957 12.7364 8.70711C12.5676 8.89464 12.3387 9 12.1 9C11.8613 9 11.6324 8.89464 11.4636 8.70711C11.2948 8.51957 11.2 8.26522 11.2 8C11.2 7.73478 11.2948 7.48043 11.4636 7.29289C11.6324 7.10536 11.8613 7 12.1 7C12.3387 7 12.5676 7.10536 12.7364 7.29289C12.9052 7.48043 13 7.73478 13 8Z" fill="#FDFCF9"/>
<path d="M18.6705 7.78977V8.72727H14.8523V7.78977H18.6705Z" fill="white"/>
</g>
<defs>
<clipPath id="clip0_583_2019">
<rect width="22" height="21" fill="white"/>
</clipPath>
</defs>
</svg>
