<svg width="24" height="24" viewBox="0 0 24 24" fill="none" xmlns="http://www.w3.org/2000/svg">
<path d="M2.25 2.625V20.25H22.875C23.1734 20.25 23.4595 20.3685 23.6705 20.5795C23.8815 20.7905 24 21.0766 24 21.375C24 21.6734 23.8815 21.9595 23.6705 22.1705C23.4595 22.3815 23.1734 22.5 22.875 22.5H1.125C0.826631 22.5 0.540483 22.3815 0.329505 22.1705C0.118526 21.9595 0 21.6734 0 21.375L0 2.625C0 2.32663 0.118526 2.04048 0.329505 1.8295C0.540483 1.61853 0.826631 1.5 1.125 1.5C1.42337 1.5 1.70952 1.61853 1.9205 1.8295C2.13147 2.04048 2.25 2.32663 2.25 2.625ZM23.67 6.42L15.795 14.295C15.5841 14.5057 15.2981 14.624 15 14.624C14.7019 14.624 14.4159 14.5057 14.205 14.295L10.5 10.59L6.42 14.67C6.20661 14.8686 5.92453 14.9768 5.63305 14.9717C5.34158 14.9667 5.0634 14.8489 4.857 14.643C4.65114 14.4366 4.5333 14.1584 4.52827 13.8669C4.52323 13.5755 4.63139 13.2934 4.83 13.08L9.705 8.205C9.91594 7.99432 10.2019 7.87599 10.5 7.87599C10.7981 7.87599 11.0841 7.99432 11.295 8.205L15 11.91L22.08 4.83C22.2934 4.63139 22.5755 4.52323 22.8669 4.52827C23.1584 4.5333 23.4366 4.65114 23.643 4.857C23.8489 5.0634 23.9667 5.34158 23.9717 5.63305C23.9768 5.92453 23.8686 6.20661 23.67 6.42Z" fill="#FDFCF9"/>
</svg>
