<svg width="24" height="24" viewBox="0 0 24 24" fill="none" xmlns="http://www.w3.org/2000/svg">
<path d="M15 3.02338V20.9709C15.0023 21.1052 14.9697 21.2378 14.9055 21.3558C14.8412 21.4737 14.7475 21.573 14.6334 21.644C14.5038 21.7211 14.354 21.7573 14.2035 21.748C14.0529 21.7386 13.9087 21.6841 13.7897 21.5915L7.6425 16.8103C7.59793 16.775 7.56195 16.7302 7.53726 16.679C7.51258 16.6278 7.49984 16.5717 7.5 16.5149V7.48494C7.50017 7.4279 7.51335 7.37166 7.53853 7.32049C7.56371 7.26931 7.60023 7.22456 7.64531 7.18963L13.7925 2.40838C13.9272 2.30398 14.0935 2.24859 14.2639 2.25132C14.4343 2.25404 14.5987 2.31473 14.73 2.42338C14.8162 2.49747 14.8851 2.58963 14.9318 2.69331C14.9785 2.797 15.0017 2.90969 15 3.02338ZM5.625 7.49994H3C2.60218 7.49994 2.22064 7.65797 1.93934 7.93928C1.65804 8.22058 1.5 8.60211 1.5 8.99994V14.9999C1.5 15.3978 1.65804 15.7793 1.93934 16.0606C2.22064 16.3419 2.60218 16.4999 3 16.4999H5.625C5.72446 16.4999 5.81984 16.4604 5.89016 16.3901C5.96049 16.3198 6 16.2244 6 16.1249V7.87494C6 7.77548 5.96049 7.6801 5.89016 7.60977C5.81984 7.53945 5.72446 7.49994 5.625 7.49994ZM17.5097 9.45369C17.4356 9.51877 17.3751 9.59782 17.3316 9.6863C17.2882 9.77479 17.2625 9.87099 17.2563 9.96938C17.25 10.0678 17.2632 10.1664 17.2951 10.2597C17.327 10.353 17.377 10.4391 17.4422 10.5131C17.8039 10.9239 18.0035 11.4525 18.0035 11.9999C18.0035 12.5473 17.8039 13.076 17.4422 13.4868C17.3752 13.5604 17.3236 13.6466 17.2902 13.7403C17.2569 13.834 17.2425 13.9335 17.248 14.0328C17.2535 14.1321 17.2786 14.2294 17.322 14.3189C17.3655 14.4084 17.4262 14.4884 17.5009 14.5542C17.5755 14.62 17.6625 14.6703 17.7567 14.7021C17.851 14.734 17.9506 14.7468 18.0498 14.7397C18.1491 14.7327 18.2459 14.706 18.3347 14.6612C18.4236 14.6164 18.5026 14.5543 18.5672 14.4787C19.1704 13.7939 19.5032 12.9126 19.5032 11.9999C19.5032 11.0873 19.1704 10.206 18.5672 9.52119C18.5021 9.44699 18.423 9.38637 18.3344 9.3428C18.2458 9.29924 18.1495 9.27358 18.051 9.26731C17.9525 9.26104 17.8538 9.27428 17.7604 9.30626C17.667 9.33824 17.5809 9.38834 17.5069 9.45369H17.5097ZM21.3431 7.00025C21.2786 6.92312 21.1992 6.85975 21.1097 6.81392C21.0202 6.76809 20.9223 6.74073 20.822 6.73347C20.7217 6.72621 20.621 6.7392 20.5258 6.77167C20.4306 6.80414 20.3429 6.85542 20.2679 6.92246C20.193 6.9895 20.1323 7.07094 20.0894 7.16192C20.0465 7.25291 20.0224 7.35158 20.0185 7.45207C20.0145 7.55257 20.0308 7.65283 20.0664 7.7469C20.102 7.84096 20.1561 7.92691 20.2256 7.99963C21.2097 9.09971 21.7538 10.5239 21.7538 11.9999C21.7538 13.4759 21.2097 14.9002 20.2256 16.0003C20.1561 16.073 20.102 16.1589 20.0664 16.253C20.0308 16.347 20.0145 16.4473 20.0185 16.5478C20.0224 16.6483 20.0465 16.747 20.0894 16.838C20.1323 16.9289 20.193 17.0104 20.2679 17.0774C20.3429 17.1445 20.4306 17.1957 20.5258 17.2282C20.621 17.2607 20.7217 17.2737 20.822 17.2664C20.9223 17.2591 21.0202 17.2318 21.1097 17.186C21.1992 17.1401 21.2786 17.0768 21.3431 16.9996C22.5728 15.6246 23.2527 13.8446 23.2527 11.9999C23.2527 10.1553 22.5728 8.37527 21.3431 7.00025Z" fill="#FDFCF9"/>
</svg>
