<svg width="24" height="24" viewBox="0 0 24 24" fill="none" xmlns="http://www.w3.org/2000/svg">
<path d="M21 13V8C21 6.89543 20.1046 6 19 6H5C3.89543 6 3 6.89543 3 8V14C3 15.1046 3.89543 16 5 16H12" stroke="#FDFCF9" stroke-width="1.5" stroke-linecap="round" stroke-linejoin="round"/>
<path fill-rule="evenodd" clip-rule="evenodd" d="M20.8792 16.9174C21.373 17.2211 21.3426 17.9604 20.834 18.0181L18.2674 18.309L17.1162 20.6213C16.8881 21.0795 16.183 20.8552 16.0664 20.2873L14.8111 14.1713C14.7126 13.6913 15.144 13.3892 15.5613 13.646L20.8792 16.9174Z" stroke="#FDFCF9" stroke-width="1.5"/>
<path d="M12 11.0099L12.01 10.9988" stroke="#FDFCF9" stroke-width="1.5" stroke-linecap="round" stroke-linejoin="round"/>
<path d="M16 11.0099L16.01 10.9988" stroke="#FDFCF9" stroke-width="1.5" stroke-linecap="round" stroke-linejoin="round"/>
<path d="M8 11.0099L8.01 10.9988" stroke="#FDFCF9" stroke-width="1.5" stroke-linecap="round" stroke-linejoin="round"/>
</svg>
